Coordinates
version=1
nRows=25
nColumns=23
inDegrees=yes

Units are S.I. units (second, meters, Newtons, ...)
If the header above contains a line with 'inDegrees', this indicates whether rotational values are in degrees (yes) or radians (no).

endheader
time	pelvis_tilt	pelvis_list	pelvis_rotation	pelvis_tx	pelvis_ty	pelvis_tz	hip_flexion_r	hip_adduction_r	hip_rotation_r	knee_angle_r	knee_angle_r_beta	ankle_angle_r	subtalar_angle_r	mtp_angle_r	hip_flexion_l	hip_adduction_l	hip_rotation_l	knee_angle_l	knee_angle_l_beta	ankle_angle_l	subtalar_angle_l	mtp_angle_l
      7.50000000	     -7.51483628	      7.89342023	      4.99148937	      2.13709548	      0.98386669	      0.96298342	     14.09254476	    -13.96691377	     -8.69633927	    103.65196399	      1.80906805	    -16.70058456	    -25.40073394	      0.00000000	     31.89622501	      8.76796367	     -9.25653000	     49.14453378	      0.85773392	     23.67483102	     -0.57831507	      0.00000000
      7.50666667	     -7.59361190	      7.57399849	      4.65040992	      2.13462275	      0.98255892	      0.96322400	     16.62123852	    -13.26085397	     -7.10514530	    105.15794501	      1.83535238	    -15.78392381	    -24.96239286	      0.00000000	     30.87886246	      8.27609416	     -9.11258282	     49.74231354	      0.86816715	     25.37823961	     -0.17977712	      0.00000000
      7.51333333	     -7.59274236	      7.23306079	      4.23677800	      2.13245920	      0.98206806	      0.96343454	     19.02091376	    -12.48063469	     -5.57769091	    106.31572572	      1.85555946	    -14.87994558	    -24.49290940	      0.00000000	     29.56209222	      7.73337683	     -9.05677080	     49.96688942	      0.87208674	     26.78216908	      0.13135419	      0.00000000
      7.52000000	     -7.82370534	      6.93708713	      3.73275395	      2.13044729	      0.98186525	      0.96369592	     21.68187507	    -11.69784597	     -4.02509447	    107.22394829	      1.87141093	    -13.95219740	    -24.10976422	      0.00000000	     28.31081374	      7.15319756	     -9.29779677	     49.85755454	      0.87017848	     27.85022282	      0.69669621	      0.00000000
      7.52666667	     -8.12287697	      6.68554353	      3.19944345	      2.12864988	      0.98217927	      0.96386937	     24.35281584	    -10.95820322	     -2.56365865	    107.82123445	      1.88183554	    -13.02745139	    -23.81034864	      0.00000000	     26.96542042	      6.65150723	     -9.59086825	     49.42618700	      0.86264970	     28.53745279	      1.13527994	      0.00000000
      7.53333333	     -8.44816817	      6.43493732	      2.68149647	      2.12726486	      0.98311263	      0.96391606	     26.93281355	    -10.19938551	     -1.25703086	    108.06970778	      1.88617222	    -12.07964535	    -23.60418590	      0.00000000	     25.46950806	      6.19030320	     -9.90937332	     48.66671354	      0.84939439	     28.90647658	      1.52236294	      0.00000000
      7.54000000	     -9.32403095	      6.36074671	      2.04210365	      2.12576692	      0.98367595	      0.96407062	     30.16984933	     -9.56236939	      0.18809841	    108.17114423	      1.88794262	    -11.14312917	    -23.42875195	      0.00000000	     24.48959419	      5.84795036	    -10.58955580	     47.72860821	      0.83302136	     29.11108516	      2.40690871	      0.00000000
      7.54666667	     -9.67382155	      6.07997568	      1.49782044	      2.12512733	      0.98585763	      0.96409409	     32.51465761	     -8.73815411	      1.16877095	    107.73192871	      1.88027687	    -10.21209189	    -23.36873405	      0.00000000	     22.74791993	      5.42726484	    -10.95106390	     46.45533219	      0.81079850	     29.15426678	      2.81461129	      0.00000000
      7.55333333	    -10.13737040	      5.78451568	      0.89916656	      2.12481479	      0.98837457	      0.96423924	     34.86828067	     -7.87269232	      2.02633058	    106.99908046	      1.86748625	     -9.24992715	    -23.38111760	      0.00000000	     21.04840522	      4.92593305	    -11.57842526	     45.04923425	      0.78625746	     29.12493086	      3.75143125	      0.00000000
      7.56000000	    -10.31442815	      5.08472808	      0.37385488	      2.12518161	      0.99203561	      0.96459827	     36.60142133	     -6.58984985	      2.38435854	    105.78751412	      1.84634043	     -8.43711995	    -23.61391525	      0.00000000	     18.96688439	      3.88393558	    -12.42927052	     43.60816287	      0.76110602	     29.06830060	      5.68585295	      0.00000000
      7.56666667	    -10.24074031	      4.21705816	     -0.11070559	      2.12615445	      0.99667632	      0.96489639	     37.80655121	     -5.24443039	      2.41277271	    104.18332999	      1.81834213	     -7.58670934	    -23.80566588	      0.00000000	     16.53285210	      2.71098072	    -13.29734082	     42.01385634	      0.73328012	     28.82592884	      7.56589984	      0.00000000
      7.57333333	    -10.35677678	      3.51994765	     -0.56425522	      2.12737440	      1.00138646	      0.96514439	     39.10583535	     -4.10668262	      2.44493051	    102.39155360	      1.78706974	     -6.66787791	    -23.86411719	      0.00000000	     14.26069593	      1.80123800	    -14.19816707	     40.25025270	      0.70249943	     28.19809069	      9.21749477	      0.00000000
      7.58000000	     -9.73661347	      2.11205643	     -0.80666449	      2.12952572	      1.00801472	      0.96517454	     39.15434547	     -2.51694325	      1.68452324	     99.98296699	      1.74503197	     -5.88997741	    -24.12497618	      0.00000000	     11.15812970	      0.13992193	    -15.04919086	     38.44001488	      0.67090482	     26.98613205	     11.06342543	      0.00000000
      7.58666667	     -9.58308216	      1.11522510	     -1.02899446	      2.13156379	      1.01403816	      0.96507258	     39.71953699	     -1.36608161	      1.15399703	     97.54022538	      1.70239809	     -5.06222572	    -24.14792223	      0.00000000	      8.59049176	     -0.93337934	    -15.78042981	     36.45856530	      0.63632200	     24.90893552	     12.17000811	      0.00000000
      7.59333333	     -9.49115656	      0.20833948	     -1.22046743	      2.13380827	      1.02019959	      0.96485096	     40.21407330	     -0.36485921	      0.61197959	     94.88449520	      1.65604685	     -4.28517709	    -24.08517603	      0.00000000	      6.11480003	     -1.84383073	    -16.52276851	     34.38599991	      0.60014891	     22.20977385	     12.91789583	      0.00000000
      7.60000000	     -9.66053516	     -0.45599141	     -1.42158775	      2.13602872	      1.02598485	      0.96463485	     40.94255975	      0.37967525	      0.17535532	     92.14696307	      1.60826790	     -3.53903923	    -23.94304882	      0.00000000	      3.99908013	     -2.41675097	    -17.18762735	     32.28967095	      0.56356107	     18.95244025	     13.26735097	      0.00000000
      7.60666667	     -9.63356404	     -1.33371842	     -1.50333481	      2.13857127	      1.03223045	      0.96434694	     41.24053967	      1.22818782	     -0.52989709	     89.10709882	      1.55521226	     -2.86549354	    -23.78602826	      0.00000000	      1.76107890	     -3.20652828	    -17.77678676	     30.25941116	      0.52812635	     15.37395494	     13.46750162	      0.00000000
      7.61333333	     -9.89346032	     -1.90169768	     -1.63135126	      2.14097647	      1.03790078	      0.96410881	     41.82242751	      1.79656932	     -1.04818907	     86.02321659	      1.50138836	     -2.27296051	    -23.58284813	      0.00000000	     -0.05504620	     -3.61784958	    -18.31638633	     28.28903226	      0.49373676	     11.45854948	     13.29451725	      0.00000000
      7.62000000	    -10.12401551	     -2.50424060	     -1.69398788	      2.14352131	      1.04354560	      0.96381870	     42.22885990	      2.33005613	     -1.69219895	     82.74879299	      1.44423889	     -1.72591541	    -23.36846945	      0.00000000	     -1.77419545	     -4.07571314	    -18.81727394	     26.46328159	      0.46187139	      7.37392417	     12.92277449	      0.00000000
      7.62666667	    -11.20934116	     -2.66135401	     -1.87551106	      2.14537905	      1.04745844	      0.96402779	     43.65506059	      2.58031991	     -2.02151610	     79.60524755	      1.38937367	     -1.17252580	    -23.02907852	      0.00000000	     -2.21005193	     -4.28076791	    -19.73370430	     25.32515718	      0.44200738	      3.46493291	     13.08184655	      0.00000000
      7.63333333	    -10.77679225	     -3.43744467	     -1.82221693	      2.14834190	      1.05398510	      0.96360416	     42.98736235	      3.14423178	     -2.94505789	     75.85199835	      1.32386712	     -0.78130766	    -22.82340767	      0.00000000	     -4.51874675	     -4.82284899	    -19.96038523	     23.50797130	      0.41029150	     -0.91893026	     11.72027668	      0.00000000
      7.64000000	    -11.41380938	     -3.60959334	     -2.04601838	      2.15035809	      1.05825137	      0.96389473	     43.65105310	      3.43353685	     -3.30939333	     72.34120748	      1.26259226	     -0.35020233	    -22.49361187	      0.00000000	     -5.24151746	     -5.01751222	    -20.92178938	     22.62418062	      0.39486644	     -4.80067150	     11.07175885	      0.00000000
      7.64666667	    -11.45984381	     -4.11476024	     -1.88507316	      2.15285705	      1.06332875	      0.96352016	     43.39855781	      3.66797223	     -4.28225798	     68.50040716	      1.19555764	      0.00997727	    -22.04552987	      0.00000000	     -6.49701973	     -5.54107268	    -21.50332497	     21.82686234	      0.38095061	     -8.71077093	      9.87348623	      0.00000000
      7.65333333	    -11.66661278	     -4.48675741	     -1.83026013	      2.15505050	      1.06772751	      0.96343449	     43.28919809	      3.88896780	     -5.13808499	     64.62935702	      1.12799507	      0.42290115	    -21.38303275	      0.00000000	     -7.32979635	     -6.08247913	    -22.50803179	     21.60845033	      0.37713860	    -12.10236415	      8.80228453	      0.00000000
      7.66000000	    -11.75306195	     -4.86078107	     -1.73272980	      2.15718468	      1.07190940	      0.96333955	     42.95343964	      4.08027102	     -6.10231496	     60.66324007	      1.05877327	      0.84110862	    -20.44560543	      0.00000000	     -8.12689607	     -6.70440588	    -23.62849078	     21.76304901	      0.37983686	    -15.07079845	      7.51908582	      0.00000000
